<svg width="19.750244" height="20.034180" viewBox="0 0 19.7502 20.0342" fill="none" xmlns="http://www.w3.org/2000/svg" xmlns:xlink="http://www.w3.org/1999/xlink">
	<desc>
			Created with Pixso.
	</desc>
	<defs/>
	<path id="Blue 500" d="M19.7502 10.2451C19.7502 9.5127 19.6843 8.8125 19.5618 8.13867L10.0852 8.13867L10.0852 11.998L15.543 11.999C15.3215 13.2842 14.6091 14.3789 13.5176 15.1084L13.5176 17.6123L16.7664 17.6123C18.6633 15.8682 19.7502 13.291 19.7502 10.2451Z" fill="#4285F4" fill-opacity="1.000000" fill-rule="nonzero"/>
	<path id="Green 500 1" d="M13.519 15.1094C12.6147 15.7148 11.4502 16.0693 10.0876 16.0693C7.45605 16.0693 5.22339 14.3076 4.42383 11.9336L1.07275 11.9336L1.07275 14.5156C2.73315 17.7881 6.14551 20.0342 10.0876 20.0342C12.8125 20.0342 15.1016 19.1445 16.7678 17.6123L13.519 15.1094Z" fill="#34A853" fill-opacity="1.000000" fill-rule="nonzero"/>
	<path id="Yellow 500 1" d="M4.1084 10.0176C4.1084 9.35156 4.22021 8.70703 4.42383 8.10059L4.42383 5.51855L1.07275 5.51855C0.38623 6.87207 0 8.39941 0 10.0176C0 11.6367 0.387451 13.1641 1.07275 14.5176L4.42383 11.9346C4.22021 11.3291 4.1084 10.6846 4.1084 10.0176Z" fill="#FABB05" fill-opacity="1.000000" fill-rule="nonzero"/>
	<path id="Red 500" d="M10.0876 3.96484C11.575 3.96484 12.9067 4.47363 13.9583 5.46777L16.8372 2.61035C15.0886 0.993164 12.8091 0 10.0876 0C6.14673 0 2.73315 2.24609 1.07275 5.51855L4.42383 8.10059C5.22339 5.72656 7.45605 3.96484 10.0876 3.96484Z" fill="#E94235" fill-opacity="1.000000" fill-rule="nonzero"/>
</svg>
