<svg width="238.000000" height="52.000000" viewBox="0 0 238 52" fill="none" xmlns="http://www.w3.org/2000/svg" xmlns:xlink="http://www.w3.org/1999/xlink">
	<desc>
			Created with Pixso.
	</desc>
	<defs>
		<filter id="filter_3_619_dd" x="0.000000" y="0.000000" width="238.000000" height="52.000000" filterUnits="userSpaceOnUse" color-interpolation-filters="sRGB">
			<feFlood flood-opacity="0" result="BackgroundImageFix"/>
			<feColorMatrix in="SourceAlpha" type="matrix" values="0 0 0 0 0 0 0 0 0 0 0 0 0 0 0 0 0 0 127 0" result="hardAlpha"/>
			<feOffset dx="0" dy="4"/>
			<feGaussianBlur stdDeviation="1.33333"/>
			<feComposite in2="hardAlpha" operator="out" k2="-1" k3="1"/>
			<feColorMatrix type="matrix" values="0 0 0 0 0 0 0 0 0 0 0 0 0 0 0 0 0 0 0.25 0"/>
			<feBlend mode="normal" in2="BackgroundImageFix" result="effect_dropShadow_1"/>
			<feBlend mode="normal" in="SourceGraphic" in2="effect_dropShadow_1" result="shape"/>
		</filter>
	</defs>
	<g filter="url(#filter_3_619_dd)">
		<path id="Lovely Flora" d="M102.953 32.9702L94.4155 32.9702L94.4155 31.7751L95.0132 31.7751C95.6392 31.7751 96.0945 31.647 96.3792 31.3909C96.6637 31.1062 96.8059 30.6367 96.8059 29.9822L96.8059 4.79761Q96.8059 4.21313 96.5177 3.87256Q96.406 3.74048 96.251 3.64502C95.8811 3.38892 95.2408 3.26099 94.3302 3.26099L94.3302 2.06567C94.8993 2.06567 95.7673 1.90918 96.9341 1.59619C98.1293 1.2832 98.9972 0.955811 99.5378 0.614258L100.306 0.443604L100.306 29.897C100.306 30.3521 100.32 30.6794 100.349 30.8787C100.406 31.0779 100.577 31.2771 100.861 31.4763C101.146 31.6755 101.587 31.7751 102.184 31.7751L102.953 31.7751L102.953 32.9702ZM172.359 32.9702L163.822 32.9702L163.822 31.7751L164.419 31.7751C165.046 31.7751 165.501 31.647 165.785 31.3909C166.07 31.1062 166.212 30.6367 166.212 29.9822L166.212 4.79761C166.212 4.25684 166.027 3.8728 165.657 3.64502C165.287 3.38892 164.647 3.26099 163.736 3.26099L163.736 2.06567C164.306 2.06567 165.174 1.90918 166.34 1.59619C167.536 1.2832 168.403 0.955811 168.944 0.614258L169.713 0.443604L169.713 29.897C169.713 30.3521 169.727 30.6794 169.755 30.8787C169.812 31.0779 169.983 31.2771 170.267 31.4763C170.552 31.6755 170.993 31.7751 171.591 31.7751L172.359 31.7751L172.359 32.9702ZM26.8796 32.9702L4 32.9702L4 31.6897L5.45129 31.6897C6.30505 31.6897 6.85999 31.5332 7.11609 31.2202C7.37219 30.907 7.50024 30.4375 7.50024 29.8115L7.50024 6.24878Q7.50024 5.30981 7.11609 4.84033Q6.73193 4.37061 5.45129 4.37061L4 4.37061L4 3.09009L14.8422 3.09009L14.8422 4.37061L13.2201 4.37061Q11.9396 4.37061 11.5554 4.84033Q11.1713 5.30981 11.1713 6.24878L11.1713 29.2139C11.1713 29.8398 11.2993 30.3237 11.5554 30.6653C11.8115 31.0066 12.3665 31.1775 13.2201 31.1775L21.3304 31.1775C22.8387 31.1775 24.162 30.6936 25.3003 29.7261C26.467 28.7302 27.0504 27.7625 27.0504 26.8235L28.3309 27.0796L26.8796 32.9702ZM149.238 32.9702L138.396 32.9702L138.396 31.7751L139.762 31.7751C140.388 31.7751 140.857 31.6755 141.17 31.4763C141.483 31.2485 141.668 31.021 141.725 30.7932C141.782 30.5657 141.811 30.2383 141.811 29.8115L141.811 6.24878C141.811 5.53735 141.668 5.03955 141.384 4.75488C141.099 4.44189 140.558 4.2854 139.762 4.2854L138.396 4.2854L138.396 3.09009L161.19 3.09009L161.617 9.15161L160.422 9.32227C160.365 8.26929 159.924 7.27344 159.098 6.33423C158.273 5.3667 157.121 4.88281 155.641 4.88281L147.616 4.88281Q146.677 4.88281 146.207 5.18164C145.894 5.38086 145.709 5.59448 145.652 5.82202C145.595 6.04956 145.567 6.36279 145.567 6.76123L145.567 16.2373L153.848 16.2373C154.275 16.2373 154.602 16.209 154.83 16.1521Q155.05 16.0996 155.216 15.9749Q155.726 15.5925 155.726 14.53L155.726 12.481L157.007 12.481L157.007 21.6157L155.726 21.6157L155.726 19.7375C155.726 18.9978 155.57 18.5281 155.257 18.3291Q154.787 18.0303 153.848 18.0303L145.567 18.0303L145.567 29.8115C145.567 30.2383 145.595 30.5657 145.652 30.7932C145.709 31.021 145.894 31.2485 146.207 31.4763Q146.677 31.7751 147.616 31.7751L149.238 31.7751L149.238 32.9702ZM207.73 32.9702L198.51 32.9702L198.51 31.7751L199.193 31.7751C199.962 31.7751 200.445 31.647 200.645 31.3909C200.872 31.1348 200.986 30.7222 200.986 30.1531L200.986 17.3472C200.986 16.8066 200.801 16.4224 200.431 16.1946C200.09 15.9385 199.449 15.8105 198.51 15.8105L198.51 14.6152C199.079 14.6152 199.933 14.416 201.072 14.0178C202.238 13.5908 203.12 13.1924 203.718 12.8225L204.486 12.6519L204.486 17.9448Q206.023 14.5725 207.987 13.5054C209.296 12.7656 211.231 12.3958 213.792 12.3958L213.536 17.3472L212.255 17.3472C212.255 16.9487 212.099 16.5647 211.786 16.1946C211.501 15.8247 211.032 15.6399 210.377 15.6399C208.954 15.6399 207.617 16.4082 206.365 17.9448C205.113 19.4814 204.486 20.9612 204.486 22.384L204.486 29.897C204.486 30.3521 204.501 30.6794 204.529 30.8787C204.586 31.0779 204.757 31.2771 205.041 31.4763C205.326 31.6755 205.767 31.7751 206.365 31.7751L207.73 31.7751L207.73 32.9702ZM90.385 27.7625L91.1534 28.531C89.3322 31.8889 86.0596 33.5679 81.3357 33.5679C79.1445 33.5679 77.2664 32.6003 75.7012 30.6653C74.1644 28.7302 73.3961 26.5674 73.3961 24.177C73.3961 20.9612 74.4348 18.2151 76.5122 15.9385C78.618 13.6335 81.1649 12.481 84.153 12.481C85.5758 12.481 86.8279 12.8936 87.9093 13.719C89.8444 15.2271 90.8119 17.1765 90.8119 19.5669Q90.8119 20.0791 90.5985 20.8047C90.4846 21.2886 90.385 21.5305 90.2997 21.5305L76.5549 21.9573C76.5549 24.177 77.2521 26.2258 78.6465 28.104C80.0409 29.9822 81.7341 30.9214 83.7261 30.9214C85.1489 30.9214 86.458 30.6367 87.6532 30.0676C88.8768 29.47 89.7875 28.7017 90.385 27.7625ZM234 32.9702L227.853 32.9702L227.853 29.5554C226.43 31.092 225.249 32.145 224.31 32.7141C223.371 33.2832 222.091 33.5679 220.469 33.5679C218.875 33.5679 217.623 33.198 216.712 32.458C215.83 31.6897 215.389 30.6226 215.389 29.2566C215.389 27.8906 215.972 26.5674 217.139 25.2869C218.334 23.9778 219.714 22.9961 221.28 22.3416C222.873 21.6584 224.268 21.1462 225.463 20.8047C226.658 20.4348 227.455 20.2498 227.853 20.2498L227.853 19.3108C227.853 16.6357 226.743 15.2983 224.524 15.2983C222.987 15.2983 221.55 15.6255 220.212 16.28C218.903 16.9346 217.922 17.7742 217.267 18.7986L216.413 18.0303Q217.529 15.8665 219.28 14.5466Q222.02 12.481 226.317 12.481C227.512 12.481 228.494 12.8083 229.262 13.4629C230.059 14.0889 230.585 14.8289 230.841 15.6824C231.126 16.5361 231.268 17.4895 231.268 18.5425L231.268 30.0676C231.268 30.4375 231.297 30.7222 231.354 30.9214C231.41 31.1206 231.581 31.3198 231.866 31.5188C232.179 31.6897 232.634 31.7751 233.232 31.7751L234 31.7751L234 32.9702ZM61.3884 33.5679L54.9001 16.2373C54.644 15.5828 54.3595 15.1133 54.0464 14.8289C53.7618 14.5156 53.3065 14.3591 52.6805 14.3591L52.0829 14.3591L52.0829 13.0786L60.0225 13.0786L59.9371 14.3591L59.5103 14.3591C58.6565 14.3591 58.2296 14.6152 58.2296 15.1274C58.2296 15.469 58.2582 15.6968 58.3151 15.8105L63.0958 28.3601L67.962 16.0667C68.1897 15.6113 68.3036 15.2556 68.3036 14.9995C68.3036 14.7434 68.147 14.5725 67.834 14.4873C67.5494 14.4019 66.8807 14.3591 65.8278 14.3591L65.3156 14.3591L65.3156 13.0786L73.3405 13.0786L73.3405 14.3591L72.999 14.3591C72.0884 14.3591 71.4338 14.5015 71.0354 14.7861C70.6655 15.0706 70.324 15.6113 70.011 16.4082L64.3765 30.8359C64.1488 30.8359 63.7078 31.2202 63.0532 31.9885C62.3987 32.7283 62.0714 33.198 62.0714 33.397L61.3884 33.5679ZM104.076 42.8733L104.759 39.5439L105.357 39.5439C105.414 39.8569 105.67 40.1985 106.125 40.5684C106.58 40.9668 107.064 41.166 107.576 41.166C109.341 41.166 110.593 40.5684 111.333 39.373C112.073 38.178 112.841 36.0151 113.638 32.8848L107.15 16.0667C106.894 15.469 106.623 15.0422 106.339 14.7861C106.054 14.5015 105.613 14.3591 105.015 14.3591L104.418 14.3591L104.418 13.0786L112.784 13.0786L112.784 14.3591L112.528 14.3591C111.333 14.3591 110.735 14.7007 110.735 15.3835C110.735 15.5259 110.878 15.9812 111.162 16.7495L115.516 28.3601L120.297 16.3228C120.638 15.6399 120.809 15.2129 120.809 15.0422C120.809 14.7861 120.638 14.6152 120.297 14.53C119.984 14.416 119.329 14.3591 118.333 14.3591L117.992 14.3591L117.992 13.0786L125.931 13.0786L125.931 14.3591L125.505 14.3591C124.537 14.3591 123.868 14.5015 123.498 14.7861C123.128 15.0706 122.801 15.6113 122.517 16.4082L113.894 38.0071C113.126 39.8853 112.201 41.2798 111.119 42.1904C110.067 43.1011 108.629 43.5564 106.808 43.5564Q105.784 43.5564 104.076 42.8733ZM76.9817 20.2498L86.9702 19.823C87.0271 19.823 87.0555 19.5669 87.0555 19.0547C87.0555 17.575 86.6145 16.522 85.7323 15.896C84.8787 15.2698 83.6833 14.9568 82.1467 14.9568C80.6384 14.9568 79.4006 15.4263 78.4331 16.3655C77.4656 17.3044 76.9817 18.5994 76.9817 20.2498ZM227.853 27.165L227.853 21.9573C225.634 22.384 223.57 23.2378 221.664 24.5186C219.757 25.7991 218.804 27.1934 218.804 28.7017C218.804 29.2993 219.088 29.8257 219.658 30.281C220.255 30.708 220.981 30.9214 221.834 30.9214C222.717 30.9214 223.755 30.5371 224.951 29.7688C226.146 28.9719 227.113 28.104 227.853 27.165Z" fill="#1F1F22" fill-opacity="1.000000" fill-rule="evenodd"/>
		<path id="Vector" d="M184.297 17.7148C186.528 12.3892 194.335 12.9565 194.335 19.7634C194.335 26.5703 184.297 32.2429 184.297 32.2429C184.297 32.2429 174.26 26.5703 174.26 19.7634C174.26 12.9565 182.067 12.3892 184.297 17.7148Z" stroke="#1F1F22" stroke-opacity="1.000000" stroke-width="2.000900" stroke-linejoin="round"/>
		<path id="Vector" d="M39.7596 17.7148C41.9901 12.3892 49.797 12.9565 49.797 19.7634C49.797 26.5703 39.7596 32.2429 39.7596 32.2429C39.7596 32.2429 29.7223 26.5703 29.7223 19.7634C29.7223 12.9565 37.5291 12.3892 39.7596 17.7148Z" stroke="#1F1F22" stroke-opacity="1.000000" stroke-width="2.000900" stroke-linejoin="round"/>
	</g>
</svg>
