<svg width="19.218506" height="18.000000" viewBox="0 0 19.2185 18" fill="none" xmlns="http://www.w3.org/2000/svg" xmlns:xlink="http://www.w3.org/1999/xlink">
	<desc>
			Created with Pixso.
	</desc>
	<defs/>
	<path id="Vector" d="M17.0546 14.3262C16.8962 15.2759 16.817 15.7515 16.58 16.1074C16.371 16.4219 16.0775 16.6704 15.7333 16.8247C15.3427 17 14.8617 17 13.8986 17L5.32019 17C4.35718 17 3.87573 17 3.48523 16.8247C3.14099 16.6704 2.84766 16.4219 2.63867 16.1074C2.40173 15.7515 2.32202 15.2759 2.1637 14.3262L1.23035 8.72607L1.22986 8.72363C1.01648 7.44336 0.90979 6.80273 1.09521 6.30371C1.25806 5.86523 1.56982 5.49805 1.97546 5.26514C2.43774 5 3.08691 5 4.3866 5L5.60925 5L13.6093 5L14.8317 5C16.1312 5 16.7816 5 17.2439 5.26514C17.6494 5.49805 17.9606 5.86523 18.1234 6.30371C18.3087 6.80273 18.202 7.44287 17.9888 8.72217L17.9879 8.72607L17.0546 14.3262ZM13.6093 5C13.6093 2.79102 11.8184 1 9.60925 1C7.40015 1 5.60925 2.79102 5.60925 5" stroke="#FFFCFF" stroke-opacity="1.000000" stroke-width="2.000000" stroke-linejoin="round"/>
</svg>
