<svg width="24.000000" height="24.000000" viewBox="0 0 24 24" fill="none" xmlns="http://www.w3.org/2000/svg" xmlns:xlink="http://www.w3.org/1999/xlink">
	<desc>
			Created with Pixso.
	</desc>
	<defs>
		<clipPath id="clip79_690">
			<rect id="Shopping" width="24.000000" height="24.000000" fill="white" fill-opacity="0"/>
		</clipPath>
	</defs>
	<g clip-path="url(#clip79_690)">
		<path id="Vector" d="M19.4453 17.3262C19.2869 18.2759 19.2078 18.7515 18.9707 19.1074C18.7617 19.4219 18.4683 19.6704 18.124 19.8247C17.7334 20 17.2524 20 16.2893 20L7.71094 20C6.7478 20 6.2666 20 5.87598 19.8247C5.53174 19.6704 5.23853 19.4219 5.02954 19.1074C4.79248 18.7515 4.71265 18.2759 4.55444 17.3262L3.62109 11.7261L3.62061 11.7236C3.40723 10.4434 3.30054 9.80273 3.48584 9.30371C3.64868 8.86523 3.96069 8.49805 4.36621 8.26514C4.82837 8 5.47778 8 6.77734 8L8 8L16 8L17.2224 8C18.522 8 19.1724 8 19.6345 8.26514C20.0403 8.49805 20.3513 8.86523 20.5142 9.30371C20.6995 9.80273 20.5928 10.4429 20.3796 11.7222L20.3787 11.7261L19.4453 17.3262ZM16 8C16 5.79102 14.2092 4 12 4C9.79077 4 8 5.79102 8 8" stroke="#1F1F22" stroke-opacity="1.000000" stroke-width="2.000000" stroke-linejoin="round"/>
	</g>
</svg>
