<svg width="29.333374" height="21.333008" viewBox="0 0 29.3334 21.333" fill="none" xmlns="http://www.w3.org/2000/svg" xmlns:xlink="http://www.w3.org/1999/xlink">
	<desc>
			Created with Pixso.
	</desc>
	<defs/>
	<path id="Vector" d="M6.66663 21.333C5.55554 21.333 4.61108 20.9443 3.83337 20.167C3.05554 19.3887 2.66663 18.4443 2.66663 17.333L0 17.333L0 2.66699C0 1.93359 0.261108 1.30566 0.783325 0.783203C1.30554 0.260742 1.93335 0 2.66663 0L21.3334 0L21.3334 5.33301L25.3334 5.33301L29.3334 10.667L29.3334 17.333L26.6666 17.333C26.6666 18.4443 26.2778 19.3887 25.5 20.167C24.7222 20.9443 23.7778 21.333 22.6666 21.333C21.5555 21.333 20.6111 20.9443 19.8334 20.167C19.0555 19.3887 18.6666 18.4443 18.6666 17.333L10.6666 17.333C10.6666 18.4443 10.2778 19.3887 9.5 20.167C8.72217 20.9443 7.77783 21.333 6.66663 21.333ZM6.66663 18.667C7.04443 18.667 7.36108 18.5391 7.6167 18.2832C7.87219 18.0273 8 17.7109 8 17.333C8 16.9551 7.87219 16.6387 7.6167 16.3838C7.36108 16.1279 7.04443 16 6.66663 16C6.28894 16 5.97217 16.1279 5.71667 16.3838C5.46106 16.6387 5.33337 16.9551 5.33337 17.333C5.33337 17.7109 5.46106 18.0273 5.71667 18.2832C5.97217 18.5391 6.28894 18.667 6.66663 18.667ZM2.66663 14.667L3.73328 14.667C4.11108 14.2666 4.54443 13.9443 5.03333 13.7002C5.52222 13.4551 6.06665 13.333 6.66663 13.333C7.26672 13.333 7.81116 13.4551 8.30005 13.7002C8.78894 13.9443 9.22217 14.2666 9.59998 14.667L18.6666 14.667L18.6666 2.66699L2.66663 2.66699L2.66663 14.667ZM22.6666 18.667C23.0444 18.667 23.3611 18.5391 23.6167 18.2832C23.8722 18.0273 24 17.7109 24 17.333C24 16.9551 23.8722 16.6387 23.6167 16.3838C23.3611 16.1279 23.0444 16 22.6666 16C22.2889 16 21.9722 16.1279 21.7167 16.3838C21.4611 16.6387 21.3334 16.9551 21.3334 17.333C21.3334 17.7109 21.4611 18.0273 21.7167 18.2832C21.9722 18.5391 22.2889 18.667 22.6666 18.667ZM21.3334 12L27 12L24 8L21.3334 8L21.3334 12Z" fill="#646464" fill-opacity="1.000000" fill-rule="nonzero"/>
</svg>
