<svg width="26.791870" height="24.000000" viewBox="0 0 26.7919 24" fill="none" xmlns="http://www.w3.org/2000/svg" xmlns:xlink="http://www.w3.org/1999/xlink">
	<desc>
			Created with Pixso.
	</desc>
	<defs/>
	<path id="Vector" d="M25.3959 10.7334L25.3959 21.333C25.3959 22.0664 25.1348 22.6943 24.6125 23.2168C24.0903 23.7393 23.4626 24 22.7292 24L4.06262 24C3.32922 24 2.70142 23.7393 2.1792 23.2168C1.65698 22.6943 1.39587 22.0664 1.39587 21.333L1.39587 10.7334C0.884766 10.2666 0.490356 9.66699 0.212524 8.93359C-0.0651855 8.2002 -0.0708008 7.40039 0.195923 6.5332L1.59595 2C1.77368 1.42188 2.09033 0.944336 2.5459 0.566406C3.00146 0.188477 3.5293 0 4.12927 0L22.6626 0C23.2626 0 23.7848 0.183594 24.2292 0.549805C24.6737 0.916992 24.996 1.40039 25.1959 2L26.5959 6.5332C26.8625 7.40039 26.8571 8.18848 26.5792 8.90039C26.3015 9.61133 25.907 10.2227 25.3959 10.7334ZM16.3292 9.33301C16.9292 9.33301 17.3848 9.12793 17.6959 8.7168C18.0071 8.30566 18.1293 7.84473 18.0626 7.33301L17.3292 2.66699L14.7292 2.66699L14.7292 7.59961C14.7292 8.06641 14.8848 8.47266 15.1959 8.81641C15.5071 9.16113 15.8848 9.33301 16.3292 9.33301ZM10.3292 9.33301C10.8403 9.33301 11.2571 9.16113 11.5792 8.81641C11.9015 8.47266 12.0626 8.06641 12.0626 7.59961L12.0626 2.66699L9.46265 2.66699L8.72925 7.33301C8.64038 7.86621 8.75708 8.33301 9.07922 8.7334C9.40149 9.13379 9.81812 9.33301 10.3292 9.33301ZM4.39587 9.33301C4.7959 9.33301 5.14587 9.18848 5.44592 8.90039C5.74597 8.61133 5.9292 8.24414 5.99597 7.7998L6.72925 2.66699L4.12927 2.66699L2.7959 7.13379C2.6626 7.57812 2.73486 8.05566 3.01257 8.56641C3.29041 9.07812 3.75146 9.33301 4.39587 9.33301ZM22.3959 9.33301C23.0404 9.33301 23.5071 9.07812 23.7959 8.56641C24.0848 8.05566 24.1515 7.57812 23.996 7.13379L22.5959 2.66699L20.0626 2.66699L20.7959 7.7998C20.8625 8.24414 21.0459 8.61133 21.3459 8.90039C21.6459 9.18848 21.996 9.33301 22.3959 9.33301ZM4.06262 21.333L22.7292 21.333L22.7292 11.9336C22.6182 11.9775 22.5459 12 22.5126 12L22.3959 12C21.7959 12 21.2682 11.9004 20.8126 11.7002C20.3571 11.5 19.907 11.1777 19.4626 10.7334C19.0626 11.1338 18.6071 11.4443 18.0959 11.667C17.5848 11.8887 17.0404 12 16.4626 12C15.8625 12 15.3015 11.8887 14.7793 11.667C14.2571 11.4443 13.7959 11.1338 13.3959 10.7334C13.0182 11.1338 12.5792 11.4443 12.0792 11.667C11.5792 11.8887 11.0404 12 10.4626 12C9.81812 12 9.23486 11.8887 8.71265 11.667C8.19031 11.4443 7.72925 11.1338 7.32922 10.7334C6.86255 11.2002 6.40149 11.5273 5.94592 11.7168C5.49036 11.9053 4.97375 12 4.39587 12L4.24597 12C4.19031 12 4.12927 11.9775 4.06262 11.9336L4.06262 21.333Z" fill="#646464" fill-opacity="1.000000" fill-rule="nonzero"/>
</svg>
